<svg width="99" height="102" viewBox="0 0 99 102" fill="none" xmlns="http://www.w3.org/2000/svg">
<path d="M98.4434 19.3604C98.4434 32.6904 89.8008 42.3096 72.5156 48.2178C77.4473 50.8057 80.2305 55.5176 80.8652 62.3535C81.0605 64.4531 81.1582 67.1143 81.1582 70.3369C81.1582 73.5596 80.2549 77.1484 78.4482 81.1035C76.6416 85.0098 74.0537 88.4766 70.6846 91.5039C63.165 98.3398 53.6191 101.758 42.0469 101.758C29.6934 101.758 19.6348 98.0225 11.8711 90.5518C4.35156 83.3252 0.591797 74.292 0.591797 63.4521C0.591797 55.6885 3.05762 48.6572 7.98926 42.3584C12.7256 36.3525 18.7314 32.2266 26.0068 29.9805C22.7842 26.7578 21.1729 23.5107 21.1729 20.2393C21.1729 16.9678 21.7344 14.1357 22.8574 11.7432C24.0293 9.30176 25.665 7.22656 27.7646 5.51758C32.1592 1.85547 37.9941 0.0244141 45.2695 0.0244141C53.7656 0.0244141 59.5762 1.31836 62.7012 3.90625C63.5312 4.58984 63.9463 5.2002 63.9463 5.7373C63.9463 6.27441 63.8975 7.17773 63.7998 8.44727C63.7021 9.7168 63.5312 11.0352 63.2871 12.4023C62.75 15.7715 62.0176 17.4561 61.0898 17.4561C60.4551 17.4561 59.7471 17.2363 58.9658 16.7969C58.2334 16.3574 57.7939 15.6982 57.6475 14.8193C56.3291 7.83691 52.2275 4.3457 45.3428 4.3457C41.583 4.3457 38.458 5.71289 35.9678 8.44727C33.624 11.084 32.4521 14.0137 32.4521 17.2363C32.4521 23.6816 35.3086 28.1006 41.0215 30.4932C42.6816 31.1768 43.5117 32.0068 43.5117 32.9834C43.5117 33.96 41.9248 34.7168 38.751 35.2539C35.626 35.791 32.501 36.8896 29.376 38.5498C26.251 40.21 23.5898 42.2852 21.3926 44.7754C16.998 49.9023 14.8008 56.4697 14.8008 64.4775C14.8008 72.876 17.7305 80.0293 23.5898 85.9375C29.5469 91.9922 37.042 95.0195 46.0752 95.0195C57.8428 95.0195 65.6797 90.2344 69.5859 80.6641C70.9531 77.3926 71.6367 74.0723 71.6367 70.7031C71.6367 67.334 71.3193 64.624 70.6846 62.5732C70.0986 60.5225 69.1953 58.7402 67.9746 57.2266C65.2402 53.8574 61.5049 52.1729 56.7686 52.1729C52.5205 52.1729 48.5166 53.7109 44.7568 56.7871C41.0947 59.7168 38.8242 63.2324 37.9453 67.334C40.7773 68.2129 42.1934 69.8975 42.1934 72.3877C42.1934 73.9014 41.7295 75.0977 40.8018 75.9766C39.9229 76.8066 38.7998 77.2217 37.4326 77.2217C36.0654 77.2217 34.7959 76.5137 33.624 75.0977C32.4521 73.6816 31.8662 71.8262 31.8662 69.5312C31.8662 67.2363 32.1836 64.917 32.8184 62.5732C33.502 60.1807 34.7715 57.8857 36.627 55.6885C40.6309 50.8545 47.3936 47.0947 56.915 44.4092C75.8115 39.0869 86.9443 32.5684 90.3135 24.8535C91.3389 22.5098 91.8516 20.4102 91.8516 18.5547C91.8516 16.6992 91.6562 15.2588 91.2656 14.2334C90.9238 13.208 90.46 12.3535 89.874 11.6699C88.751 10.3516 87.2129 9.69238 85.2598 9.69238C83.3555 9.69238 82.2568 10.7178 81.9639 12.7686C84.0146 13.208 85.04 14.2334 85.04 15.8447C85.04 16.9678 84.6738 17.8223 83.9414 18.4082C83.2578 18.9453 82.2812 19.2139 81.0117 19.2139C79.7422 19.2139 78.668 18.7012 77.7891 17.6758C76.959 16.6504 76.5439 15.5518 76.5439 14.3799C76.5439 13.1592 76.7393 12.0361 77.1299 11.0107C77.5693 9.93652 78.1797 8.98437 78.9609 8.1543C80.8652 6.15234 82.8916 5.15137 85.04 5.15137C87.1885 5.15137 88.9951 5.44434 90.46 6.03027C91.9736 6.61621 93.3164 7.49512 94.4883 8.66699C97.125 11.3037 98.4434 14.8682 98.4434 19.3604Z" fill="#333333"/>
</svg>
