<svg width="31" height="35" viewBox="0 0 31 35" fill="none" xmlns="http://www.w3.org/2000/svg">
<path d="M0 31.7188C0 33.5303 1.48772 35 3.32143 35H27.6786C29.5123 35 31 33.5303 31 31.7188V13.125H0V31.7188ZM22.1429 18.3203C22.1429 17.8691 22.5165 17.5 22.9732 17.5H25.7411C26.1978 17.5 26.5714 17.8691 26.5714 18.3203V21.0547C26.5714 21.5059 26.1978 21.875 25.7411 21.875H22.9732C22.5165 21.875 22.1429 21.5059 22.1429 21.0547V18.3203ZM22.1429 27.0703C22.1429 26.6191 22.5165 26.25 22.9732 26.25H25.7411C26.1978 26.25 26.5714 26.6191 26.5714 27.0703V29.8047C26.5714 30.2559 26.1978 30.625 25.7411 30.625H22.9732C22.5165 30.625 22.1429 30.2559 22.1429 29.8047V27.0703ZM13.2857 18.3203C13.2857 17.8691 13.6594 17.5 14.1161 17.5H16.8839C17.3406 17.5 17.7143 17.8691 17.7143 18.3203V21.0547C17.7143 21.5059 17.3406 21.875 16.8839 21.875H14.1161C13.6594 21.875 13.2857 21.5059 13.2857 21.0547V18.3203ZM13.2857 27.0703C13.2857 26.6191 13.6594 26.25 14.1161 26.25H16.8839C17.3406 26.25 17.7143 26.6191 17.7143 27.0703V29.8047C17.7143 30.2559 17.3406 30.625 16.8839 30.625H14.1161C13.6594 30.625 13.2857 30.2559 13.2857 29.8047V27.0703ZM4.42857 18.3203C4.42857 17.8691 4.80223 17.5 5.25893 17.5H8.02678C8.48348 17.5 8.85714 17.8691 8.85714 18.3203V21.0547C8.85714 21.5059 8.48348 21.875 8.02678 21.875H5.25893C4.80223 21.875 4.42857 21.5059 4.42857 21.0547V18.3203ZM4.42857 27.0703C4.42857 26.6191 4.80223 26.25 5.25893 26.25H8.02678C8.48348 26.25 8.85714 26.6191 8.85714 27.0703V29.8047C8.85714 30.2559 8.48348 30.625 8.02678 30.625H5.25893C4.80223 30.625 4.42857 30.2559 4.42857 29.8047V27.0703ZM27.6786 4.375H24.3571V1.09375C24.3571 0.492188 23.8589 0 23.25 0H21.0357C20.4268 0 19.9286 0.492188 19.9286 1.09375V4.375H11.0714V1.09375C11.0714 0.492188 10.5732 0 9.96428 0H7.75C7.14107 0 6.64286 0.492188 6.64286 1.09375V4.375H3.32143C1.48772 4.375 0 5.84473 0 7.65625V10.9375H31V7.65625C31 5.84473 29.5123 4.375 27.6786 4.375Z" fill="black"/>
</svg>
