<svg width="18" height="16" viewBox="0 0 18 16" fill="none" xmlns="http://www.w3.org/2000/svg">
<path d="M1.125 14.4286C1.125 15.0212 1.62773 15.5 2.25 15.5H7.875V10.1429H1.125V14.4286ZM10.125 15.5H15.75C16.3723 15.5 16.875 15.0212 16.875 14.4286V10.1429H10.125V15.5ZM16.875 4.78571H15.3949C15.6129 4.38058 15.75 3.93192 15.75 3.44643C15.75 1.82254 14.3613 0.5 12.6562 0.5C11.1938 0.5 10.248 1.21317 9.03516 2.78683C7.82227 1.21317 6.87656 0.5 5.41406 0.5C3.70898 0.5 2.32031 1.82254 2.32031 3.44643C2.32031 3.93192 2.45391 4.38058 2.67539 4.78571H1.125C0.502734 4.78571 0 5.26451 0 5.85714V8.53571C0 8.83036 0.253125 9.07143 0.5625 9.07143H17.4375C17.7469 9.07143 18 8.83036 18 8.53571V5.85714C18 5.26451 17.4973 4.78571 16.875 4.78571ZM5.41055 4.78571C4.63359 4.78571 4.0043 4.18638 4.0043 3.44643C4.0043 2.70647 4.63359 2.10714 5.41055 2.10714C6.11016 2.10714 6.62695 2.21763 8.4375 4.78571H5.41055ZM12.6562 4.78571H9.6293C11.4363 2.22433 11.9391 2.10714 12.6562 2.10714C13.4332 2.10714 14.0625 2.70647 14.0625 3.44643C14.0625 4.18638 13.4332 4.78571 12.6562 4.78571Z" fill="#FF9898"/>
</svg>
