<svg width="18" height="14" viewBox="0 0 18 14" fill="none" xmlns="http://www.w3.org/2000/svg">
<path d="M8.76136 3.87254L3.00024 8.27939V13.0357C3.00024 13.1588 3.05291 13.2769 3.14667 13.364C3.24043 13.4511 3.3676 13.5 3.5002 13.5L7.0018 13.4916C7.13397 13.491 7.26049 13.4418 7.35372 13.3548C7.44694 13.2678 7.49927 13.15 7.49927 13.0272V10.2496C7.49927 10.1265 7.55194 10.0084 7.6457 9.9213C7.73946 9.83422 7.86663 9.7853 7.99923 9.7853H9.99907C10.1317 9.7853 10.2588 9.83422 10.3526 9.9213C10.4464 10.0084 10.499 10.1265 10.499 10.2496V13.0252C10.4988 13.0863 10.5116 13.1469 10.5366 13.2034C10.5617 13.2599 10.5985 13.3112 10.6449 13.3545C10.6914 13.3978 10.7465 13.4321 10.8073 13.4555C10.8681 13.4789 10.9332 13.491 10.999 13.491L14.4994 13.5C14.6319 13.5 14.7591 13.4511 14.8529 13.364C14.9466 13.2769 14.9993 13.1588 14.9993 13.0357V8.2762L9.23944 3.87254C9.17173 3.82185 9.08737 3.79421 9.0004 3.79421C8.91343 3.79421 8.82907 3.82185 8.76136 3.87254V3.87254ZM17.8616 6.86781L15.2493 4.86796V0.848253C15.2493 0.755891 15.2098 0.667311 15.1395 0.602001C15.0691 0.536691 14.9738 0.5 14.8743 0.5H13.1245C13.025 0.5 12.9296 0.536691 12.8593 0.602001C12.789 0.667311 12.7495 0.755891 12.7495 0.848253V2.95547L9.95189 0.817781C9.68341 0.612596 9.34653 0.50041 8.99884 0.50041C8.65115 0.50041 8.31426 0.612596 8.04579 0.817781L0.136083 6.86781C0.0981131 6.89696 0.0666992 6.93277 0.043636 6.97319C0.0205728 7.01362 0.00631225 7.05787 0.00166929 7.10342C-0.00297366 7.14896 0.00209192 7.19491 0.0165766 7.23864C0.0310613 7.28237 0.0546812 7.32302 0.0860867 7.35827L0.8829 8.25792C0.91422 8.29329 0.952744 8.32258 0.996266 8.3441C1.03979 8.36562 1.08745 8.37897 1.13653 8.38336C1.18562 8.38775 1.23515 8.38311 1.28229 8.36971C1.32944 8.3563 1.37328 8.33439 1.4113 8.30522L8.76136 2.68268C8.82907 2.63198 8.91343 2.60434 9.0004 2.60434C9.08737 2.60434 9.17173 2.63198 9.23944 2.68268L16.5898 8.30522C16.6278 8.33439 16.6715 8.35633 16.7186 8.36978C16.7657 8.38323 16.8152 8.38794 16.8642 8.38363C16.9133 8.37931 16.9609 8.36607 17.0044 8.34465C17.048 8.32323 17.0865 8.29405 17.1179 8.25879L17.9147 7.35914C17.9461 7.32369 17.9696 7.28283 17.9839 7.23891C17.9982 7.19499 18.0031 7.14887 17.9981 7.10322C17.9932 7.05756 17.9786 7.01326 17.9552 6.97286C17.9317 6.93246 17.8999 6.89676 17.8616 6.86781V6.86781Z" fill="#FF9898"/>
</svg>
