<svg width="18" height="14" viewBox="0 0 18 14" fill="none" xmlns="http://www.w3.org/2000/svg">
<path d="M15 12V12.5C15 13.3284 14.3284 14 13.5 14H1.5C0.671563 14 0 13.3284 0 12.5V4.5C0 3.67156 0.671563 3 1.5 3H2V9.5C2 10.8785 3.1215 12 4.5 12H15ZM18 9.5V1.5C18 0.671562 17.3284 0 16.5 0H4.5C3.67156 0 3 0.671562 3 1.5V9.5C3 10.3284 3.67156 11 4.5 11H16.5C17.3284 11 18 10.3284 18 9.5ZM8 3C8 3.82844 7.32844 4.5 6.5 4.5C5.67156 4.5 5 3.82844 5 3C5 2.17156 5.67156 1.5 6.5 1.5C7.32844 1.5 8 2.17156 8 3ZM5 7.5L6.73484 5.76516C6.88128 5.61872 7.11872 5.61872 7.26519 5.76516L8.5 7L12.7348 2.76516C12.8813 2.61872 13.1187 2.61872 13.2652 2.76516L16 5.5V9H5V7.5Z" fill="#FF9898"/>
</svg>
