<svg width="34" height="30" viewBox="0 0 34 30" fill="none" xmlns="http://www.w3.org/2000/svg">
<path d="M17 0C12.8923 0 9.5625 3.30527 9.5625 7.38281C9.5625 10.6793 14.4234 16.6875 16.2858 18.8684C16.663 19.3102 17.3376 19.3102 17.7142 18.8684C19.5766 16.6875 24.4375 10.6793 24.4375 7.38281C24.4375 3.30527 21.1077 0 17 0ZM17 9.84375C15.6306 9.84375 14.5208 8.74219 14.5208 7.38281C14.5208 6.02344 15.6306 4.92188 17 4.92188C18.3694 4.92188 19.4792 6.02344 19.4792 7.38281C19.4792 8.74219 18.3694 9.84375 17 9.84375ZM1.18764 12.6533C0.837119 12.7925 0.53664 13.0327 0.324954 13.343C0.113268 13.6533 8.39498e-05 14.0194 0 14.3941L0 29.0613C0 29.7246 0.674688 30.1781 1.29507 29.932L9.44444 26.25V12.593C8.92264 11.6566 8.49587 10.7449 8.1901 9.87305L1.18764 12.6533ZM17 21.0744C16.1695 21.0744 15.3838 20.7123 14.8449 20.0807C13.6844 18.7213 12.4501 17.1732 11.3333 15.5854V26.2494L22.6667 29.9994V15.5859C21.5499 17.1732 20.3162 18.7219 19.1551 20.0812C18.6162 20.7123 17.8305 21.0744 17 21.0744ZM32.7049 9.44297L24.5556 13.125V30L32.8124 26.7217C33.1629 26.5826 33.4635 26.3424 33.6751 26.0321C33.8868 25.7218 34 25.3556 34 24.9809V10.3137C34 9.65039 33.3253 9.19688 32.7049 9.44297Z" fill="black"/>
</svg>
